<?xml version="1.0" standalone="yes"?>

<svg version="1.1" viewBox="0.0 0.0 302.257217847769 268.03937007874015" fill="none" stroke="none" stroke-linecap="square" stroke-miterlimit="10" xmlns="http://www.w3.org/2000/svg" xmlns:xlink="http://www.w3.org/1999/xlink"><clipPath id="p.0"><path d="m0 0l302.25723 0l0 268.03937l-302.25723 0l0 -268.03937z" clip-rule="nonzero"></path></clipPath><g clip-path="url(#p.0)"><path fill="#000000" fill-opacity="0.0" d="m0 0l302.25723 0l0 268.03937l-302.25723 0z" fill-rule="evenodd"></path><path fill="#000000" fill-opacity="0.0" d="m40.0 224.0l0 -224.0" fill-rule="evenodd"></path><path stroke="#000000" stroke-width="1.0" stroke-linejoin="round" stroke-linecap="butt" d="m40.0 224.0l0 -218.0" fill-rule="evenodd"></path><path fill="#000000" stroke="#000000" stroke-width="1.0" stroke-linecap="butt" d="m41.651733 6.0l-1.6517334 -4.538098l-1.6517334 4.538098z" fill-rule="evenodd"></path><path fill="#000000" fill-opacity="0.0" d="m40.0 224.0l248.0 0" fill-rule="evenodd"></path><path stroke="#000000" stroke-width="1.0" stroke-linejoin="round" stroke-linecap="butt" d="m40.0 224.0l242.0 0" fill-rule="evenodd"></path><path fill="#000000" stroke="#000000" stroke-width="1.0" stroke-linecap="butt" d="m282.0 225.65173l4.538086 -1.6517334l-4.538086 -1.6517334z" fill-rule="evenodd"></path><path fill="#000000" fill-opacity="0.0" d="m40.0 200.0l152.0 -200.0" fill-rule="evenodd"></path><path stroke="#000000" stroke-width="1.0" stroke-linejoin="round" stroke-linecap="butt" stroke-dasharray="1.0,3.0" d="m40.0 200.0l152.0 -200.0" fill-rule="evenodd"></path><path fill="#000000" fill-opacity="0.0" d="m64.0 224.0l216.0 -152.0" fill-rule="evenodd"></path><path stroke="#000000" stroke-width="1.0" stroke-linejoin="round" stroke-linecap="butt" stroke-dasharray="1.0,3.0" d="m64.0 224.0l216.0 -152.0" fill-rule="evenodd"></path><path fill="#000000" fill-opacity="0.0" d="m0 224.0l0 -224.0l40.0 0l0 224.0z" fill-rule="evenodd"></path><path fill="#000000" d="m21.919998 146.4992l0.84375 -2.671875q2.21875 0.609375 3.3125 2.046875q1.078125 1.421875 1.078125 3.609375q0 2.703125 -1.84375 4.453125q-1.859375 1.734375 -5.078125 1.734375q-3.390625 0 -5.265625 -1.75q-1.875 -1.75 -1.875 -4.609375q0 -2.5 1.46875 -4.046875q0.875 -0.9375 2.5 -1.390625l0.65625 2.71875q-1.0625 0.234375 -1.671875 1.0q-0.609375 0.765625 -0.609375 1.859375q0 1.515625 1.09375 2.453125q1.078125 0.9375 3.5 0.9375q2.578125 0 3.6875 -0.921875q1.09375 -0.921875 1.09375 -2.40625q0 -1.109375 -0.6875 -1.890625q-0.703125 -0.78125 -2.203125 -1.125zm-8.59375 -7.3635864l5.0 0q-1.484375 -1.25 -1.484375 -3.015625q0 -0.890625 0.34375 -1.609375q0.328125 -0.734375 0.84375 -1.09375q0.515625 -0.375 1.15625 -0.5q0.625 -0.140625 1.953125 -0.140625l5.78125 0l0 2.609375l-5.203125 0q-1.546875 0 -1.96875 0.15625q-0.421875 0.140625 -0.65625 0.515625q-0.25 0.375 -0.25 0.9375q0 0.65625 0.3125 1.171875q0.3125 0.5 0.953125 0.734375q0.640625 0.234375 1.875 0.234375l4.9375 0l0 2.609375l-13.59375 0l0 -2.609375zm6.75 -10.739716l-0.4375 2.359375q-1.421875 -0.390625 -2.109375 -1.359375q-0.6875 -0.984375 -0.6875 -2.9062576q0 -1.734375 0.421875 -2.59375q0.40625 -0.859375 1.046875 -1.203125q0.625 -0.34375 2.328125 -0.34375l3.046875 0.03125q1.296875 0 1.921875 -0.125q0.609375 -0.125 1.3125 -0.46875l0 2.578125q-0.265625 0.09375 -0.765625 0.25q-0.234375 0.0625 -0.3125 0.09375q0.65625 0.65625 0.984375 1.421875q0.3125 0.765625 0.3125 1.625q0 1.5156326 -0.8125 2.4062576q-0.828125 0.875 -2.09375 0.875q-0.84375 0 -1.484375 -0.390625q-0.65625 -0.40625 -1.0 -1.125q-0.359375 -0.71875 -0.625 -2.0781326q-0.328125 -1.828125 -0.625 -2.53125l-0.265625 0q-0.75 0 -1.0625 0.375q-0.328125 0.359375 -0.328125 1.390625q0 0.703125 0.28125 1.09375q0.265625 0.39063263 0.953125 0.6250076zm2.109375 -3.4843826q0.171875 0.5 0.40625 1.59375q0.234375 1.078125 0.453125 1.40625q0.359375 0.5156326 0.921875 0.5156326q0.546875 0 0.953125 -0.40625q0.390625 -0.40625763 0.390625 -1.0468826q0 -0.703125 -0.46875 -1.34375q-0.359375 -0.46875 -0.859375 -0.625q-0.34375 -0.09375 -1.28125 -0.09375l-0.515625 0zm4.734375 -4.938217l-13.59375 0l0 -2.609375l13.59375 0l0 2.609375zm0 -5.183304l-13.59375 0l0 -2.609375l13.59375 0l0 2.609375zm-3.140625 -10.886429l0.4375 -2.609375q1.4375 0.5 2.1875 1.59375q0.734375 1.078125 0.734375 2.703125q0 2.5625 -1.671875 3.796875q-1.34375 0.96875 -3.40625 0.96875q-2.4375 0 -3.828125 -1.265625q-1.390625 -1.28125 -1.390625 -3.25q0 -2.1875 1.453125 -3.453125q1.453125 -1.28125 4.453125 -1.234375l0 6.53125q1.15625 -0.015625 1.8125 -0.625q0.640625 -0.609375 0.640625 -1.5q0 -0.609375 -0.328125 -1.03125q-0.34375 -0.421875 -1.09375 -0.625zm-2.625 -0.15625q-1.140625 0.03125 -1.71875 0.59375q-0.59375 0.546875 -0.59375 1.34375q0 0.859375 0.625 1.40625q0.609375 0.5625 1.6875 0.546875l0 -3.890625zm5.765625 -13.485085l0 2.609375l-5.03125 0q-1.59375 0 -2.0625 0.171875q-0.46875 0.15625 -0.71875 0.53125q-0.265625 0.375 -0.265625 0.90625q0 0.6875 0.375 1.234375q0.359375 0.5312424 0.984375 0.7343674q0.609375 0.1875 2.25 0.1875l4.46875 0l0 2.609375l-9.859375 0l0 -2.421875l1.453125 0q-1.671875 -1.2968674 -1.671875 -3.2499924q0 -0.859375 0.3125 -1.578125q0.3125 -0.71875 0.796875 -1.078125q0.484375 -0.359375 1.09375 -0.5q0.609375 -0.15625 1.75 -0.15625l6.125 0zm0.65625 -2.192871l0.359375 -2.96875q0.515625 -0.078125 0.703125 -0.34375q0.28125 -0.375 0.28125 -1.171875q0 -1.03125 -0.296875 -1.53125q-0.203125 -0.34375 -0.65625 -0.515625q-0.328125 -0.125 -1.203125 -0.125l-1.4375 0q1.59375 1.171875 1.59375 2.953125q0 1.984375 -1.671875 3.140625q-1.328125 0.90625 -3.3125 0.90625q-2.46875 0 -3.78125 -1.1875q-1.3125 -1.1875 -1.3125 -2.96875q0 -1.828125 1.609375 -3.015625l-1.390625 0l0 -2.4375l8.84375 0q1.75 0 2.609375 0.296875q0.859375 0.28125 1.34375 0.796875q0.5 0.515625 0.78125 1.390625q0.28125 0.859375 0.28125 2.1875q0 2.515625 -0.859375 3.5625q-0.859375 1.046875 -2.171875 1.046875q-0.140625 0 -0.3125 -0.015625zm-5.78125 -2.328125q1.5625 0 2.296875 -0.609375q0.71875 -0.609375 0.71875 -1.5q0 -0.953125 -0.734375 -1.609375q-0.75 -0.65625 -2.21875 -0.65625q-1.53125 0 -2.265625 0.640625q-0.75 0.625 -0.75 1.578125q0 0.9375 0.734375 1.546875q0.71875 0.609375 2.21875 0.609375zm1.984375 -15.005341l0.4375 -2.609375q1.4375 0.5 2.1875 1.59375q0.734375 1.078125 0.734375 2.703125q0 2.5625 -1.671875 3.796875q-1.34375 0.96875 -3.40625 0.96875q-2.4375 0 -3.828125 -1.265625q-1.390625 -1.28125 -1.390625 -3.25q0 -2.1875 1.453125 -3.453125q1.453125 -1.28125 4.453125 -1.234375l0 6.53125q1.15625 -0.015625 1.8125 -0.625q0.640625 -0.609375 0.640625 -1.5q0 -0.609375 -0.328125 -1.03125q-0.34375 -0.421875 -1.09375 -0.625zm-2.625 -0.15625q-1.140625 0.03125 -1.71875 0.59375q-0.59375 0.546875 -0.59375 1.34375q0 0.859375 0.625 1.40625q0.609375 0.5625 1.6875 0.546875l0 -3.890625z" fill-rule="nonzero"></path><path fill="#000000" fill-opacity="0.0" d="m40.0 216.0l248.0 0l0 40.0l-248.0 0z" fill-rule="evenodd"></path><path fill="#000000" d="m114.40763 238.49812l2.671875 -0.265625q0.234375 1.34375 0.96875 1.984375q0.75 0.625 2.0 0.625q1.328125 0 2.0 -0.5625q0.671875 -0.5625 0.671875 -1.3125q0 -0.484375 -0.28125 -0.8125q-0.28125 -0.34375 -0.984375 -0.59375q-0.484375 -0.171875 -2.203125 -0.59375q-2.203125 -0.546875 -3.09375 -1.34375q-1.265625 -1.125 -1.265625 -2.734375q0 -1.046875 0.59375 -1.953125q0.59375 -0.90625 1.703125 -1.375q1.109375 -0.46875 2.671875 -0.46875q2.5625 0 3.859375 1.125q1.296875 1.109375 1.359375 2.984375l-2.75 0.125q-0.171875 -1.046875 -0.75 -1.5q-0.578125 -0.46875 -1.75 -0.46875q-1.1875 0 -1.875 0.5q-0.4375 0.3125 -0.4375 0.84375q0 0.484375 0.421875 0.828125q0.515625 0.421875 2.515625 0.90625q2.0 0.46875 2.953125 0.984375q0.96875 0.5 1.515625 1.375q0.546875 0.875 0.546875 2.15625q0 1.171875 -0.65625 2.203125q-0.640625 1.015625 -1.828125 1.515625q-1.1875 0.484375 -2.96875 0.484375q-2.578125 0 -3.96875 -1.1875q-1.375 -1.1875 -1.640625 -3.46875zm13.021698 4.421875l0 -13.59375l2.6093674 0l0 7.203125l3.0625 -3.46875l3.203125 0l-3.375 3.609375l3.609375 6.25l-2.796875 0l-2.484375 -4.421875l-1.21875 1.265625l0 3.15625l-2.6093674 0zm10.469475 -11.1875l0 -2.40625l2.609375 0l0 2.40625l-2.609375 0zm0 11.1875l0 -9.859375l2.609375 0l0 9.859375l-2.609375 0zm5.1832886 0l0 -13.59375l2.609375 0l0 13.59375l-2.609375 0zm5.183319 0l0 -13.59375l2.609375 0l0 13.59375l-2.609375 0zm3.7926636 0.234375l3.375 -14.0625l1.953125 0l-3.40625 14.0625l-1.921875 0zm18.855194 -0.234375l-2.984375 0l-1.1875 -3.09375l-5.4375 0l-1.125 3.09375l-2.90625 0l5.296875 -13.59375l2.90625 0l5.4375 13.59375zm-5.046875 -5.375l-1.875 -5.046875l-1.84375 5.046875l3.71875 0zm6.129181 5.375l0 -13.59375l2.609375 0l0 4.890625q1.203125 -1.375 2.859375 -1.375q1.796875 0 2.96875 1.3125q1.1875 1.296875 1.1875 3.734375q0 2.53125 -1.203125 3.890625q-1.203125 1.359375 -2.921875 1.359375q-0.84375 0 -1.671875 -0.421875q-0.8125 -0.421875 -1.40625 -1.25l0 1.453125l-2.421875 0zm2.59375 -5.140625q0 1.53125 0.484375 2.265625q0.671875 1.03125 1.796875 1.03125q0.859375 0 1.46875 -0.734375q0.609375 -0.734375 0.609375 -2.328125q0 -1.6875 -0.609375 -2.421875q-0.609375 -0.75 -1.578125 -0.75q-0.9375 0 -1.5625 0.734375q-0.609375 0.71875 -0.609375 2.203125zm8.911621 -6.046875l0 -2.40625l2.609375 0l0 2.40625l-2.609375 0zm0 11.1875l0 -9.859375l2.609375 0l0 9.859375l-2.609375 0zm5.1832886 0l0 -13.59375l2.609375 0l0 13.59375l-2.609375 0zm5.183319 -11.1875l0 -2.40625l2.609375 0l0 2.40625l-2.609375 0zm0 11.1875l0 -9.859375l2.609375 0l0 9.859375l-2.609375 0zm9.698914 -9.859375l0 2.078125l-1.78125 0l0 3.984375q0 1.203125 0.046875 1.40625q0.0625 0.1875 0.234375 0.328125q0.1875 0.125 0.453125 0.125q0.359375 0 1.046875 -0.25l0.21875 2.015625q-0.90625 0.390625 -2.0625 0.390625q-0.703125 0 -1.265625 -0.234375q-0.5625 -0.234375 -0.828125 -0.609375q-0.265625 -0.375 -0.375 -1.015625q-0.078125 -0.453125 -0.078125 -1.84375l0 -4.296875l-1.203125 0l0 -2.078125l1.203125 0l0 -1.953125l2.609375 -1.515625l0 3.46875l1.78125 0zm0.462677 0l2.78125 0l2.359375 7.0l2.296875 -7.0l2.703125 0l-3.484375 9.484375l-0.625 1.71875q-0.34375 0.859375 -0.65625 1.3125q-0.296875 0.46875 -0.703125 0.75q-0.40625 0.28125 -1.0 0.4375q-0.59375 0.15625 -1.328125 0.15625q-0.75 0 -1.46875 -0.15625l-0.234375 -2.046875q0.609375 0.125 1.09375 0.125q0.921875 0 1.34375 -0.53125q0.4375 -0.53125 0.671875 -1.359375l-3.75 -9.890625z" fill-rule="nonzero"></path><path fill="#000000" fill-opacity="0.0" d="m48.0 16.0l96.0 0l0 33.82677l-96.0 0z" fill-rule="evenodd"></path><path fill="#000000" d="m65.03531 42.92l7.703125 -13.59375l2.140625 0l2.25 13.59375l-1.765625 0l-0.65625 -3.921875l-5.5 0l-2.1875 3.921875l-1.984375 0zm4.953125 -5.3125l4.5 0l-0.53125 -3.421875q-0.3125 -2.03125 -0.375 -3.375q-0.46875 1.15625 -1.359375 2.765625l-2.234375 4.03125zm8.490448 5.3125l2.0625 -9.859375l1.53125 0l-0.375 1.71875q1.0 -1.0 1.859375 -1.46875q0.859375 -0.46875 1.765625 -0.46875q1.203125 0 1.875 0.65625q0.6875 0.640625 0.6875 1.734375q0 0.546875 -0.25 1.71875l-1.25 5.96875l-1.671875 0l1.3125 -6.25q0.1875 -0.90625 0.1875 -1.34375q0 -0.484375 -0.34375 -0.78125q-0.328125 -0.3125 -0.96875 -0.3125q-1.296875 0 -2.3125 0.921875q-1.0 0.921875 -1.46875 3.1875l-0.953125 4.578125l-1.6875 0zm9.719467 0l4.296875 -5.0l-2.46875 -4.859375l1.859375 0l0.828125 1.765625q0.46875 0.984375 0.84375 1.875l2.84375 -3.640625l2.046875 0l-4.140625 4.984375l2.484375 4.875l-1.859375 0l-0.984375 -2.0q-0.3125 -0.640625 -0.703125 -1.59375l-2.9375 3.59375l-2.109375 0zm12.375 -11.703125l0.40625 -1.890625l1.65625 0l-0.390625 1.890625l-1.671875 0zm-2.453125 11.703125l2.0625 -9.859375l1.6875 0l-2.0625 9.859375l-1.6875 0zm11.457321 -3.34375l1.625 0.15625q-0.359375 1.21875 -1.625 2.3125q-1.265625 1.09375 -3.015625 1.09375q-1.09375 0 -2.015625 -0.5q-0.90625 -0.5 -1.390625 -1.46875q-0.46875 -0.96875 -0.46875 -2.203125q0 -1.609375 0.75 -3.125q0.75 -1.515625 1.9375 -2.25q1.1875 -0.75 2.5625 -0.75q1.765625 0 2.8125 1.09375q1.0625 1.09375 1.0625 2.984375q0 0.734375 -0.140625 1.484375l-7.25 0q-0.03125 0.296875 -0.03125 0.53125q0 1.375 0.625 2.109375q0.640625 0.71875 1.5625 0.71875q0.859375 0 1.6875 -0.5625q0.84375 -0.5625 1.3125 -1.625zm-4.890625 -2.453125l5.53125 0q0.015625 -0.25 0.015625 -0.359375q0 -1.265625 -0.640625 -1.9375q-0.625 -0.671875 -1.625 -0.671875q-1.0625 0 -1.953125 0.75q-0.890625 0.734375 -1.328125 2.21875zm11.953842 4.4375l-0.28125 1.375q-0.609375 0.15625 -1.171875 0.15625q-1.0 0 -1.59375 -0.5q-0.453125 -0.375 -0.453125 -1.015625q0 -0.3125 0.25 -1.484375l1.1875 -5.71875l-1.328125 0l0.28125 -1.3125l1.328125 0l0.5 -2.421875l1.921875 -1.15625l-0.75 3.578125l1.65625 0l-0.28125 1.3125l-1.640625 0l-1.140625 5.4375q-0.21875 1.046875 -0.21875 1.25q0 0.296875 0.171875 0.453125q0.171875 0.15625 0.5625 0.15625q0.5625 0 1.0 -0.109375zm0.62080383 5.15625l0.109375 -1.5625q0.515625 0.140625 1.0 0.140625q0.515625 0 0.828125 -0.234375q0.40625 -0.296875 0.890625 -1.140625l0.546875 -0.96875l-1.65625 -9.890625l1.65625 0l0.75 4.984375q0.21875 1.484375 0.375 2.953125l4.40625 -7.9375l1.75 0l-6.28125 11.171875q-0.90625 1.625 -1.609375 2.15625q-0.703125 0.53125 -1.625 0.53125q-0.578125 0 -1.140625 -0.203125z" fill-rule="nonzero"></path><path fill="#000000" fill-opacity="0.0" d="m192.0 160.0l96.0 0l0 33.826767l-96.0 0z" fill-rule="evenodd"></path><path fill="#000000" d="m202.97816 186.92l2.84375 -13.59375l4.21875 0q1.140625 0 1.703125 0.078125q0.90625 0.171875 1.53125 0.5625q0.625 0.390625 0.96875 1.078125q0.34375 0.671875 0.34375 1.5q0 1.125 -0.625 1.984375q-0.609375 0.84375 -1.875 1.296875q1.109375 0.359375 1.65625 1.09375q0.546875 0.71875 0.546875 1.6875q0 1.125 -0.65625 2.15625q-0.640625 1.03125 -1.703125 1.59375q-1.0625 0.5625 -2.375 0.5625l-6.578125 0zm3.453125 -7.796875l2.75 0q1.984375 0 2.84375 -0.625q0.875 -0.640625 0.875 -1.84375q0 -0.578125 -0.28125 -0.984375q-0.265625 -0.421875 -0.71875 -0.609375q-0.4375 -0.1875 -1.6875 -0.1875l-2.890625 0l-0.890625 4.25zm-1.3125 6.25l3.09375 0q1.234375 0 1.671875 -0.078125q0.859375 -0.140625 1.390625 -0.5q0.546875 -0.359375 0.84375 -0.9375q0.3125 -0.59375 0.3125 -1.234375q0 -0.953125 -0.609375 -1.453125q-0.59375 -0.5 -2.265625 -0.5l-3.453125 0l-0.984375 4.703125zm10.396698 -2.1875q0 -2.890625 1.703125 -4.78125q1.40625 -1.5625 3.671875 -1.5625q1.78125 0 2.875 1.125q1.09375 1.109375 1.09375 3.0q0 1.6875 -0.6875 3.15625q-0.6875 1.453125 -1.953125 2.234375q-1.265625 0.78125 -2.671875 0.78125q-1.15625 0 -2.09375 -0.484375q-0.9375 -0.5 -1.4375 -1.390625q-0.5 -0.90625 -0.5 -2.078125zm1.6875 -0.171875q0 1.390625 0.65625 2.109375q0.671875 0.71875 1.703125 0.71875q0.546875 0 1.0625 -0.21875q0.53125 -0.21875 0.984375 -0.65625q0.46875 -0.453125 0.78125 -1.015625q0.328125 -0.578125 0.515625 -1.234375q0.28125 -0.921875 0.28125 -1.765625q0 -1.328125 -0.671875 -2.0625q-0.671875 -0.75 -1.6875 -0.75q-0.78125 0 -1.4375 0.375q-0.65625 0.375 -1.1875 1.109375q-0.515625 0.71875 -0.765625 1.6875q-0.234375 0.953125 -0.234375 1.703125zm8.391342 3.90625l2.0625 -9.859375l1.484375 0l-0.421875 2.015625q0.765625 -1.140625 1.484375 -1.6875q0.734375 -0.546875 1.5 -0.546875q0.5 0 1.234375 0.359375l-0.6875 1.5625q-0.4375 -0.3125 -0.953125 -0.3125q-0.875 0 -1.8125 0.984375q-0.921875 0.984375 -1.453125 3.53125l-0.828125 3.953125l-1.609375 0zm13.462677 -3.34375l1.625 0.15625q-0.359375 1.21875 -1.625 2.3125q-1.265625 1.09375 -3.015625 1.09375q-1.09375 0 -2.015625 -0.5q-0.90625 -0.5 -1.390625 -1.46875q-0.46875 -0.96875 -0.46875 -2.203125q0 -1.609375 0.75 -3.125q0.75 -1.515625 1.9375 -2.25q1.1875 -0.75 2.5625 -0.75q1.765625 0 2.8125 1.09375q1.0625 1.09375 1.0625 2.984375q0 0.734375 -0.140625 1.484375l-7.25 0q-0.03125 0.296875 -0.03125 0.53125q0 1.375 0.625 2.109375q0.640625 0.71875 1.5625 0.71875q0.859375 0 1.6875 -0.5625q0.84375 -0.5625 1.3125 -1.625zm-4.890625 -2.453125l5.53125 0q0.015625 -0.25 0.015625 -0.359375q0 -1.265625 -0.640625 -1.9375q-0.625 -0.671875 -1.625 -0.671875q-1.0625 0 -1.953125 0.75q-0.890625 0.734375 -1.328125 2.21875zm14.672592 4.375q-1.453125 1.640625 -3.015625 1.640625q-1.40625 0 -2.34375 -1.03125q-0.921875 -1.03125 -0.921875 -3.0q0 -1.796875 0.734375 -3.28125q0.75 -1.5 1.84375 -2.234375q1.109375 -0.75 2.234375 -0.75q1.828125 0 2.765625 1.78125l1.109375 -5.296875l1.671875 0l-2.828125 13.59375l-1.546875 0l0.296875 -1.421875zm-4.609375 -2.703125q0 1.03125 0.203125 1.625q0.203125 0.59375 0.6875 0.984375q0.5 0.390625 1.1875 0.390625q1.140625 0 2.0625 -1.1875q1.25 -1.578125 1.25 -3.890625q0 -1.171875 -0.609375 -1.828125q-0.609375 -0.65625 -1.546875 -0.65625q-0.59375 0 -1.09375 0.265625q-0.5 0.265625 -0.984375 0.921875q-0.484375 0.640625 -0.828125 1.640625q-0.328125 0.984375 -0.328125 1.734375zm8.625717 0.390625q0 -2.890625 1.703125 -4.78125q1.40625 -1.5625 3.671875 -1.5625q1.78125 0 2.875 1.125q1.09375 1.109375 1.09375 3.0q0 1.6875 -0.6875 3.15625q-0.6875 1.453125 -1.953125 2.234375q-1.265625 0.78125 -2.671875 0.78125q-1.15625 0 -2.09375 -0.484375q-0.9375 -0.5 -1.4375 -1.390625q-0.5 -0.90625 -0.5 -2.078125zm1.6875 -0.171875q0 1.390625 0.65625 2.109375q0.671875 0.71875 1.703125 0.71875q0.546875 0 1.0625 -0.21875q0.53125 -0.21875 0.984375 -0.65625q0.46875 -0.453125 0.78125 -1.015625q0.328125 -0.578125 0.515625 -1.234375q0.28125 -0.921875 0.28125 -1.765625q0 -1.328125 -0.671875 -2.0625q-0.671875 -0.75 -1.6875 -0.75q-0.78125 0 -1.4375 0.375q-0.65625 0.375 -1.1875 1.109375q-0.515625 0.71875 -0.765625 1.6875q-0.234375 0.953125 -0.234375 1.703125zm8.391327 3.90625l2.0625 -9.859375l1.671875 0l-0.34375 1.625q0.9375 -1.046875 1.671875 -1.4375q0.734375 -0.40625 1.609375 -0.40625q0.90625 0 1.515625 0.5q0.625 0.484375 0.828125 1.34375q0.75 -0.921875 1.578125 -1.375q0.828125 -0.46875 1.75 -0.46875q1.234375 0 1.84375 0.59375q0.625 0.578125 0.625 1.640625q0 0.453125 -0.21875 1.5l-1.328125 6.34375l-1.671875 0l1.359375 -6.515625q0.171875 -0.796875 0.171875 -1.140625q0 -0.484375 -0.3125 -0.75q-0.296875 -0.28125 -0.859375 -0.28125q-0.75 0 -1.53125 0.453125q-0.78125 0.453125 -1.21875 1.1875q-0.421875 0.734375 -0.75 2.265625l-1.0 4.78125l-1.671875 0l1.390625 -6.65625q0.140625 -0.671875 0.140625 -0.953125q0 -0.484375 -0.296875 -0.78125q-0.296875 -0.296875 -0.78125 -0.296875q-0.71875 0 -1.5 0.453125q-0.78125 0.453125 -1.28125 1.265625q-0.484375 0.8125 -0.796875 2.3125l-0.984375 4.65625l-1.671875 0z" fill-rule="nonzero"></path><path fill="#000000" fill-opacity="0.0" d="m144.0 64.0l96.0 0l0 33.826775l-96.0 0z" fill-rule="evenodd"></path><path fill="#000000" d="m173.16464 90.92l2.84375 -13.59375l8.84375 0l-0.328125 1.546875l-7.015625 0l-0.90625 4.328125l7.15625 0l-0.328125 1.546875l-7.15625 0l-1.28125 6.171875l-1.828125 0zm11.036606 0l2.84375 -13.59375l1.671875 0l-2.828125 13.59375l-1.6875 0zm4.566696 -3.734375q0 -2.890625 1.703125 -4.78125q1.40625 -1.5625 3.671875 -1.5625q1.78125 0 2.875 1.125q1.09375 1.109375 1.09375 3.0q0 1.6875 -0.6875 3.15625q-0.6875 1.453125 -1.953125 2.234375q-1.265625 0.78125 -2.671875 0.78125q-1.15625 0 -2.09375 -0.484375q-0.9375 -0.5 -1.4375 -1.390625q-0.5 -0.90625 -0.5 -2.078125zm1.6875 -0.171875q0 1.390625 0.65625 2.109375q0.671875 0.71875 1.703125 0.71875q0.546875 0 1.0625 -0.21875q0.53125 -0.21875 0.984375 -0.65625q0.46875 -0.453125 0.78125 -1.015625q0.328125 -0.578125 0.515625 -1.234375q0.28125 -0.921875 0.28125 -1.765625q0 -1.328125 -0.671875 -2.0625q-0.671875 -0.75 -1.6875 -0.75q-0.78125 0 -1.4375 0.375q-0.65625 0.375 -1.1875 1.109375q-0.515625 0.71875 -0.765625 1.6875q-0.234375 0.953125 -0.234375 1.703125zm10.266342 3.90625l-1.03125 -9.859375l1.625 0l0.4375 4.4375l0.1875 2.484375q0.015625 0.28125 0.046875 1.125q0.28125 -0.953125 0.46875 -1.453125q0.203125 -0.515625 0.625 -1.453125l2.34375 -5.140625l1.828125 0l0.328125 4.9375q0.078125 1.125 0.09375 2.984375q0.46875 -1.234375 1.515625 -3.4375l2.109375 -4.484375l1.6875 0l-4.8125 9.859375l-1.75 0l-0.375 -5.78125q-0.03125 -0.53125 -0.046875 -2.09375q-0.390625 0.984375 -0.90625 2.140625l-2.609375 5.734375l-1.765625 0z" fill-rule="nonzero"></path></g></svg>

