<?xml version="1.0" standalone="yes"?>

<svg version="1.1" viewBox="0.0 0.0 511.61679790026244 319.04199475065616" fill="none" stroke="none" stroke-linecap="square" stroke-miterlimit="10" xmlns="http://www.w3.org/2000/svg" xmlns:xlink="http://www.w3.org/1999/xlink"><clipPath id="p.0"><path d="m0 0l511.6168 0l0 319.042l-511.6168 0l0 -319.042z" clip-rule="nonzero"></path></clipPath><g clip-path="url(#p.0)"><path fill="#000000" fill-opacity="0.0" d="m0 0l511.6168 0l0 319.042l-511.6168 0z" fill-rule="evenodd"></path><defs><radialGradient id="p.1" gradientUnits="userSpaceOnUse" gradientTransform="matrix(7.797441524253131 0.0 0.0 7.797441524253131 0.0 0.0)" spreadMethod="pad" cx="22.20764609529931" cy="20.441753502302593" fx="22.20764609529931" fy="20.441753502302593" r="7.797441482543945"><stop offset="0.0" stop-color="#f5d0d0"></stop><stop offset="1.0" stop-color="#d96868"></stop></radialGradient></defs><path fill="url(#p.1)" d="m133.6529 160.95714c0.95799255 -8.143494 10.7773285 -22.274292 17.244095 -30.178482c6.466751 -7.9042053 12.933502 -19.40245 21.556427 -17.24672c8.622925 2.1557312 23.474625 22.995178 30.181107 30.181107c6.7064667 7.185913 10.776459 6.467621 10.057739 12.934372c-0.7187195 6.466751 -7.6636047 17.722656 -14.370087 25.86615c-6.7064667 8.143478 -17.006561 23.473755 -25.86876 22.994751c-8.862213 -0.4790039 -20.837708 -18.443573 -27.304459 -25.868774c-6.4667664 -7.425186 -12.454071 -10.538925 -11.496063 -18.682404z" fill-rule="evenodd"></path><path fill="#000000" fill-opacity="0.0" d="m7.186352 115.69554l0 0c0 -59.13361 47.93726 -107.07087 107.07086 -107.07087l0 0c28.396957 0 55.63086 11.280647 75.71054 31.360332c20.079681 20.079681 31.360321 47.313572 31.360321 75.71054l0 0c0 59.133606 -47.937256 107.07086 -107.07086 107.07086l0 0c-59.133606 0 -107.07086 -47.937256 -107.07086 -107.07086z" fill-rule="evenodd"></path><path stroke="#000000" stroke-width="2.0" stroke-linejoin="round" stroke-linecap="butt" d="m7.186352 115.69554l0 0c0 -59.13361 47.93726 -107.07087 107.07086 -107.07087l0 0c28.396957 0 55.63086 11.280647 75.71054 31.360332c20.079681 20.079681 31.360321 47.313572 31.360321 75.71054l0 0c0 59.133606 -47.937256 107.07086 -107.07086 107.07086l0 0c-59.133606 0 -107.07086 -47.937256 -107.07086 -107.07086z" fill-rule="evenodd"></path><path fill="#000000" fill-opacity="0.0" d="m122.29396 115.69554l0 0c0 -59.13361 47.937256 -107.07087 107.07086 -107.07087l0 0c28.396957 0 55.630875 11.280647 75.710556 31.360332c20.079681 20.079681 31.360321 47.313572 31.360321 75.71054l0 0c0 59.133606 -47.937256 107.07086 -107.07088 107.07086l0 0c-59.133606 0 -107.07086 -47.937256 -107.07086 -107.07086z" fill-rule="evenodd"></path><path stroke="#000000" stroke-width="2.0" stroke-linejoin="round" stroke-linecap="butt" d="m122.29396 115.69554l0 0c0 -59.13361 47.937256 -107.07087 107.07086 -107.07087l0 0c28.396957 0 55.630875 11.280647 75.710556 31.360332c20.079681 20.079681 31.360321 47.313572 31.360321 75.71054l0 0c0 59.133606 -47.937256 107.07086 -107.07088 107.07086l0 0c-59.133606 0 -107.07086 -47.937256 -107.07086 -107.07086z" fill-rule="evenodd"></path><path fill="#000000" fill-opacity="0.0" d="m122.29396 203.93439l0 0c0 -59.133606 47.937256 -107.07087 107.07086 -107.07087l0 0c28.396957 0 55.630875 11.280647 75.710556 31.360329c20.079681 20.079681 31.360321 47.313583 31.360321 75.71054l0 0c0 59.133606 -47.937256 107.07086 -107.07088 107.07086l0 0c-59.133606 0 -107.07086 -47.937256 -107.07086 -107.07086z" fill-rule="evenodd"></path><path stroke="#000000" stroke-width="2.0" stroke-linejoin="round" stroke-linecap="butt" d="m122.29396 203.93439l0 0c0 -59.133606 47.937256 -107.07087 107.07086 -107.07087l0 0c28.396957 0 55.630875 11.280647 75.710556 31.360329c20.079681 20.079681 31.360321 47.313583 31.360321 75.71054l0 0c0 59.133606 -47.937256 107.07086 -107.07088 107.07086l0 0c-59.133606 0 -107.07086 -47.937256 -107.07086 -107.07086z" fill-rule="evenodd"></path><path fill="#000000" fill-opacity="0.0" d="m7.186352 203.93439l0 0c0 -59.133606 47.93726 -107.07087 107.07086 -107.07087l0 0c28.396957 0 55.63086 11.280647 75.71054 31.360329c20.079681 20.079681 31.360321 47.313583 31.360321 75.71054l0 0c0 59.133606 -47.937256 107.07086 -107.07086 107.07086l0 0c-59.133606 0 -107.07086 -47.937256 -107.07086 -107.07086z" fill-rule="evenodd"></path><path stroke="#000000" stroke-width="2.0" stroke-linejoin="round" stroke-linecap="butt" d="m7.186352 203.93439l0 0c0 -59.133606 47.93726 -107.07087 107.07086 -107.07087l0 0c28.396957 0 55.63086 11.280647 75.71054 31.360329c20.079681 20.079681 31.360321 47.313583 31.360321 75.71054l0 0c0 59.133606 -47.937256 107.07086 -107.07086 107.07086l0 0c-59.133606 0 -107.07086 -47.937256 -107.07086 -107.07086z" fill-rule="evenodd"></path><path fill="#000000" fill-opacity="0.0" d="m30.325459 51.73491l91.968506 0l0 35.937004l-91.968506 0z" fill-rule="evenodd"></path><path fill="#000000" d="m41.059834 78.65491l0 -13.359375l1.765625 0l0 13.359375l-1.765625 0zm4.683304 0l0 -9.671875l1.46875 0l0 1.375q1.0625 -1.59375 3.078125 -1.59375q0.875 0 1.609375 0.3125q0.734375 0.3125 1.09375 0.828125q0.375 0.5 0.515625 1.203125q0.09375 0.453125 0.09375 1.59375l0 5.953125l-1.640625 0l0 -5.890625q0 -1.0 -0.203125 -1.484375q-0.1875 -0.5 -0.671875 -0.796875q-0.484375 -0.296875 -1.140625 -0.296875q-1.046875 0 -1.8125 0.671875q-0.75 0.65625 -0.75 2.515625l0 5.28125l-1.640625 0zm13.953842 -1.46875l0.234375 1.453125q-0.6875 0.140625 -1.234375 0.140625q-0.890625 0 -1.390625 -0.28125q-0.484375 -0.28125 -0.6875 -0.734375q-0.203125 -0.46875 -0.203125 -1.9375l0 -5.578125l-1.203125 0l0 -1.265625l1.203125 0l0 -2.390625l1.625 -0.984375l0 3.375l1.65625 0l0 1.265625l-1.65625 0l0 5.671875q0 0.6875 0.078125 0.890625q0.09375 0.203125 0.28125 0.328125q0.203125 0.109375 0.578125 0.109375q0.265625 0 0.71875 -0.0625zm8.230183 -1.640625l1.6875 0.203125q-0.40625 1.484375 -1.484375 2.3125q-1.078125 0.8125 -2.765625 0.8125q-2.1250038 0 -3.3750038 -1.296875q-1.234375 -1.3125 -1.234375 -3.671875q0 -2.453125 1.25 -3.796875q1.265625 -1.34375 3.2656288 -1.34375q1.9375 0 3.15625 1.328125q1.234375 1.3125 1.234375 3.703125q0 0.15625 0 0.4375l-7.218754 0q0.09375 1.59375 0.90625 2.453125q0.8125038 0.84375 2.0156288 0.84375q0.90625 0 1.546875 -0.46875q0.640625 -0.484375 1.015625 -1.515625zm-5.390629 -2.65625l5.406254 0q-0.109375 -1.21875 -0.625 -1.828125q-0.78125 -0.953125 -2.03125 -0.953125q-1.125 0 -1.9062538 0.765625q-0.765625 0.75 -0.84375 2.015625zm9.125721 5.765625l0 -9.671875l1.46875 0l0 1.46875q0.5625 -1.03125 1.03125 -1.359375q0.484375 -0.328125 1.0625 -0.328125q0.828125 0 1.6875 0.53125l-0.5625 1.515625q-0.609375 -0.359375 -1.203125 -0.359375q-0.546875 0 -0.96875 0.328125q-0.421875 0.328125 -0.609375 0.890625q-0.28125 0.875 -0.28125 1.921875l0 5.0625l-1.625 0zm12.853302 -3.109375l1.6875 0.203125q-0.40625 1.484375 -1.484375 2.3125q-1.078125 0.8125 -2.765625 0.8125q-2.125 0 -3.375 -1.296875q-1.234375 -1.3125 -1.234375 -3.671875q0 -2.453125 1.25 -3.796875q1.265625 -1.34375 3.265625 -1.34375q1.9375 0 3.15625 1.328125q1.234375 1.3125 1.234375 3.703125q0 0.15625 0 0.4375l-7.21875 0q0.09375 1.59375 0.90625 2.453125q0.8125 0.84375 2.015625 0.84375q0.90625 0 1.546875 -0.46875q0.640625 -0.484375 1.015625 -1.515625zm-5.390625 -2.65625l5.40625 0q-0.109375 -1.21875 -0.625 -1.828125q-0.78125 -0.953125 -2.03125 -0.953125q-1.125 0 -1.90625 0.765625q-0.765625 0.75 -0.84375 2.015625zm8.485092 2.875l1.625 -0.25q0.125 0.96875 0.75 1.5q0.625 0.515625 1.75 0.515625q1.125 0 1.671875 -0.453125q0.546875 -0.46875 0.546875 -1.09375q0 -0.546875 -0.484375 -0.875q-0.328125 -0.21875 -1.671875 -0.546875q-1.8125 -0.46875 -2.515625 -0.796875q-0.6875 -0.328125 -1.046875 -0.90625q-0.359375 -0.59375 -0.359375 -1.3125q0 -0.640625 0.296875 -1.1875q0.296875 -0.5625 0.8125 -0.921875q0.375 -0.28125 1.03125 -0.46875q0.671875 -0.203125 1.421875 -0.203125q1.140625 0 2.0 0.328125q0.859375 0.328125 1.265625 0.890625q0.421875 0.5625 0.578125 1.5l-1.609375 0.21875q-0.109375 -0.75 -0.640625 -1.171875q-0.515625 -0.421875 -1.46875 -0.421875q-1.140625 0 -1.625 0.375q-0.46875 0.375 -0.46875 0.875q0 0.3125 0.1875 0.578125q0.203125 0.265625 0.640625 0.4375q0.234375 0.09375 1.4375 0.421875q1.75 0.453125 2.4375 0.75q0.6875 0.296875 1.078125 0.859375q0.390625 0.5625 0.390625 1.40625q0 0.828125 -0.484375 1.546875q-0.46875 0.71875 -1.375 1.125q-0.90625 0.390625 -2.046875 0.390625q-1.875 0 -2.875 -0.78125q-0.984375 -0.78125 -1.25 -2.328125zm13.5625 1.421875l0.234375 1.453125q-0.6875 0.140625 -1.234375 0.140625q-0.890625 0 -1.390625 -0.28125q-0.484375 -0.28125 -0.6875 -0.734375q-0.203125 -0.46875 -0.203125 -1.9375l0 -5.578125l-1.203125 0l0 -1.265625l1.203125 0l0 -2.390625l1.625 -0.984375l0 3.375l1.65625 0l0 1.265625l-1.65625 0l0 5.671875q0 0.6875 0.078125 0.890625q0.09375 0.203125 0.28125 0.328125q0.203125 0.109375 0.578125 0.109375q0.265625 0 0.71875 -0.0625zm0.94892883 -1.421875l1.625 -0.25q0.125 0.96875 0.75 1.5q0.625 0.515625 1.75 0.515625q1.125 0 1.671875 -0.453125q0.546875 -0.46875 0.546875 -1.09375q0 -0.546875 -0.484375 -0.875q-0.328125 -0.21875 -1.671875 -0.546875q-1.8125 -0.46875 -2.515625 -0.796875q-0.6875 -0.328125 -1.046875 -0.90625q-0.359375 -0.59375 -0.359375 -1.3125q0 -0.640625 0.296875 -1.1875q0.296875 -0.5625 0.8125 -0.921875q0.375 -0.28125 1.03125 -0.46875q0.671875 -0.203125 1.421875 -0.203125q1.140625 0 2.0 0.328125q0.859375 0.328125 1.265625 0.890625q0.421875 0.5625 0.578125 1.5l-1.609375 0.21875q-0.109375 -0.75 -0.640625 -1.171875q-0.515625 -0.421875 -1.46875 -0.421875q-1.140625 0 -1.625 0.375q-0.46875 0.375 -0.46875 0.875q0 0.3125 0.1875 0.578125q0.203125 0.265625 0.640625 0.4375q0.234375 0.09375 1.4375 0.421875q1.75 0.453125 2.4375 0.75q0.6875 0.296875 1.078125 0.859375q0.390625 0.5625 0.390625 1.40625q0 0.828125 -0.484375 1.546875q-0.46875 0.71875 -1.375 1.125q-0.90625 0.390625 -2.046875 0.390625q-1.875 0 -2.875 -0.78125q-0.984375 -0.78125 -1.25 -2.328125z" fill-rule="nonzero"></path><path fill="#000000" fill-opacity="0.0" d="m230.32545 51.73491l91.96852 0l0 35.937004l-91.96852 0z" fill-rule="evenodd"></path><path fill="#000000" d="m240.1692 74.35803l1.65625 -0.140625q0.125 1.0 0.546875 1.640625q0.4375 0.640625 1.34375 1.046875q0.921875 0.390625 2.0625 0.390625q1.0 0 1.78125 -0.296875q0.78125 -0.296875 1.15625 -0.8125q0.375 -0.53125 0.375 -1.15625q0 -0.625 -0.375 -1.09375q-0.359375 -0.46875 -1.1875 -0.796875q-0.546875 -0.203125 -2.390625 -0.640625q-1.828125 -0.453125 -2.5625 -0.84375q-0.96875 -0.5 -1.4375 -1.234375q-0.46875 -0.75 -0.46875 -1.671875q0 -1.0 0.578125 -1.875q0.578125 -0.890625 1.671875 -1.34375q1.109375 -0.453125 2.453125 -0.453125q1.484375 0 2.609375 0.484375q1.140625 0.46875 1.75 1.40625q0.609375 0.921875 0.65625 2.09375l-1.6875 0.125q-0.140625 -1.265625 -0.9375 -1.90625q-0.78125 -0.65625 -2.3125 -0.65625q-1.609375 0 -2.34375 0.59375q-0.734375 0.59375 -0.734375 1.421875q0 0.71875 0.53125 1.171875q0.5 0.46875 2.65625 0.96875q2.15625 0.484375 2.953125 0.84375q1.171875 0.53125 1.71875 1.359375q0.5625 0.828125 0.5625 1.90625q0 1.0625 -0.609375 2.015625q-0.609375 0.9375 -1.75 1.46875q-1.140625 0.515625 -2.578125 0.515625q-1.8125 0 -3.046875 -0.53125q-1.21875 -0.53125 -1.921875 -1.59375q-0.6875 -1.0625 -0.71875 -2.40625zm12.834198 4.296875l0 -13.359375l1.640625 0l0 7.625l3.8906403 -3.9375l2.109375 0l-3.6875 3.59375l4.0625 6.078125l-2.015625 0l-3.2031403 -4.953125l-1.15625 1.125l0 3.828125l-1.640625 0zm9.32814 -11.46875l0 -1.890625l1.640625 0l0 1.890625l-1.640625 0zm0 11.46875l0 -9.671875l1.640625 0l0 9.671875l-1.640625 0zm4.097931 0l0 -13.359375l1.640625 0l0 13.359375l-1.640625 0zm4.1448364 0l0 -13.359375l1.640625 0l0 13.359375l-1.640625 0zm3.535431 -2.890625l1.625 -0.25q0.125 0.96875 0.75 1.5q0.625 0.515625 1.75 0.515625q1.125 0 1.671875 -0.453125q0.546875 -0.46875 0.546875 -1.09375q0 -0.546875 -0.484375 -0.875q-0.328125 -0.21875 -1.671875 -0.546875q-1.8125 -0.46875 -2.515625 -0.796875q-0.6875 -0.328125 -1.046875 -0.90625q-0.359375 -0.59375 -0.359375 -1.3125q0 -0.640625 0.296875 -1.1875q0.296875 -0.5625 0.8125 -0.921875q0.375 -0.28125 1.03125 -0.46875q0.671875 -0.203125 1.421875 -0.203125q1.140625 0 2.0 0.328125q0.859375 0.328125 1.265625 0.890625q0.421875 0.5625 0.578125 1.5l-1.609375 0.21875q-0.109375 -0.75 -0.640625 -1.171875q-0.515625 -0.421875 -1.46875 -0.421875q-1.140625 0 -1.625 0.375q-0.46875 0.375 -0.46875 0.875q0 0.3125 0.1875 0.578125q0.203125 0.265625 0.640625 0.4375q0.234375 0.09375 1.4375 0.421875q1.75 0.453125 2.4375 0.75q0.6875 0.296875 1.078125 0.859375q0.390625 0.5625 0.390625 1.40625q0 0.828125 -0.484375 1.546875q-0.46875 0.71875 -1.375 1.125q-0.90625 0.390625 -2.046875 0.390625q-1.875 0 -2.875 -0.78125q-0.984375 -0.78125 -1.25 -2.328125z" fill-rule="nonzero"></path><path fill="#000000" fill-opacity="0.0" d="m46.32546 235.73491l91.968506 0l0 35.936996l-91.968506 0z" fill-rule="evenodd"></path><path fill="#000000" d="m63.01296 257.42053l0 -1.578125l5.656254 0l0 4.953125q-1.296875 1.046875 -2.6875 1.578125q-1.375 0.515625 -2.8437538 0.515625q-1.96875 0 -3.578125 -0.84375q-1.609375 -0.84375 -2.421875 -2.4375q-0.8125 -1.59375 -0.8125 -3.5625q0 -1.953125 0.8125 -3.640625q0.8125 -1.6875 2.34375 -2.5q1.53125 -0.828125 3.515625 -0.828125q1.4531288 0 2.6250038 0.46875q1.171875 0.46875 1.828125 1.3125q0.671875 0.828125 1.015625 2.171875l-1.59375 0.4375q-0.296875 -1.015625 -0.75 -1.59375q-0.4375 -0.59375 -1.265625 -0.9375q-0.828125 -0.34375 -1.8437538 -0.34375q-1.203125 0 -2.09375 0.375q-0.890625 0.359375 -1.4375 0.96875q-0.53125 0.59375 -0.828125 1.3125q-0.515625 1.234375 -0.515625 2.6875q0 1.78125 0.609375 2.984375q0.625 1.203125 1.796875 1.796875q1.171875 0.578125 2.5 0.578125q1.1406288 0 2.2343788 -0.4375q1.09375 -0.453125 1.65625 -0.953125l0 -2.484375l-3.9218788 0zm7.4489326 0.390625q0 -2.6875 1.484375 -3.96875q1.25 -1.078125 3.046875 -1.078125q2.0 0 3.265625 1.3125q1.265625 1.296875 1.265625 3.609375q0 1.859375 -0.5625 2.9375q-0.5625 1.0625 -1.640625 1.65625q-1.0625 0.59375 -2.328125 0.59375q-2.03125 0 -3.28125 -1.296875q-1.25 -1.3125 -1.25 -3.765625zm1.6875 0q0 1.859375 0.796875 2.796875q0.8125 0.921875 2.046875 0.921875q1.21875 0 2.03125 -0.921875q0.8125 -0.9375 0.8125 -2.84375q0 -1.796875 -0.8125 -2.71875q-0.8125 -0.921875 -2.03125 -0.921875q-1.234375 0 -2.046875 0.921875q-0.796875 0.90625 -0.796875 2.765625zm15.610092 3.65625q-0.921875 0.765625 -1.765625 1.09375q-0.828125 0.3125 -1.796875 0.3125q-1.59375 0 -2.453125 -0.78125q-0.859375 -0.78125 -0.859375 -1.984375q0 -0.71875 0.328125 -1.296875q0.328125 -0.59375 0.84375 -0.9375q0.53125 -0.359375 1.1875 -0.546875q0.46875 -0.125 1.453125 -0.25q1.984375 -0.234375 2.921875 -0.5625q0.015625 -0.34375 0.015625 -0.421875q0 -1.0 -0.46875 -1.421875q-0.625 -0.546875 -1.875 -0.546875q-1.15625 0 -1.703125 0.40625q-0.546875 0.40625 -0.8125 1.421875l-1.609375 -0.21875q0.21875 -1.015625 0.71875 -1.640625q0.5 -0.640625 1.453125 -0.984375q0.953125 -0.34375 2.1875 -0.34375q1.25 0 2.015625 0.296875q0.78125 0.28125 1.140625 0.734375q0.375 0.4375 0.515625 1.109375q0.078125 0.421875 0.078125 1.515625l0 2.1875q0 2.28125 0.109375 2.890625q0.109375 0.59375 0.40625 1.15625l-1.703125 0q-0.265625 -0.515625 -0.328125 -1.1875zm-0.140625 -3.671875q-0.890625 0.375 -2.671875 0.625q-1.015625 0.140625 -1.4375 0.328125q-0.421875 0.1875 -0.65625 0.53125q-0.21875 0.34375 -0.21875 0.78125q0 0.65625 0.5 1.09375q0.5 0.4375 1.453125 0.4375q0.9375 0 1.671875 -0.40625q0.75 -0.421875 1.09375 -1.140625q0.265625 -0.5625 0.265625 -1.640625l0 -0.609375zm4.156967 4.859375l0 -13.359375l1.640625 0l0 13.359375l-1.640625 0zm3.5354462 -2.890625l1.625 -0.25q0.125 0.96875 0.75 1.5q0.625 0.515625 1.75 0.515625q1.125 0 1.671875 -0.453125q0.546875 -0.46875 0.546875 -1.09375q0 -0.546875 -0.484375 -0.875q-0.328125 -0.21875 -1.671875 -0.546875q-1.8125 -0.46875 -2.515625 -0.796875q-0.6875 -0.328125 -1.046875 -0.90625q-0.359375 -0.59375 -0.359375 -1.3125q0 -0.640625 0.296875 -1.1875q0.296875 -0.5625 0.8125 -0.921875q0.375 -0.28125 1.03125 -0.46875q0.671875 -0.203125 1.421875 -0.203125q1.140625 0 2.0 0.328125q0.859375 0.328125 1.265625 0.890625q0.421875 0.5625 0.578125 1.5l-1.609375 0.21875q-0.109375 -0.75 -0.640625 -1.171875q-0.515625 -0.421875 -1.46875 -0.421875q-1.140625 0 -1.625 0.375q-0.46875 0.375 -0.46875 0.875q0 0.3125 0.1875 0.578125q0.203125 0.265625 0.640625 0.4375q0.234375 0.09375 1.4375 0.421875q1.75 0.453125 2.4375 0.75q0.6875 0.296875 1.078125 0.859375q0.390625 0.5625 0.390625 1.40625q0 0.828125 -0.484375 1.546875q-0.46875 0.71875 -1.375 1.125q-0.90625 0.390625 -2.046875 0.390625q-1.875 0 -2.875 -0.78125q-0.984375 -0.78125 -1.25 -2.328125z" fill-rule="nonzero"></path><path fill="#000000" fill-opacity="0.0" d="m212.87401 238.55905l100.40947 0l0 35.93701l-100.40947 0z" fill-rule="evenodd"></path><path fill="#000000" d="m222.71776 261.1822l1.65625 -0.140625q0.125 1.0 0.546875 1.640625q0.4375 0.640625 1.34375 1.046875q0.921875 0.390625 2.0625 0.390625q1.0 0 1.78125 -0.296875q0.78125 -0.296875 1.15625 -0.8125q0.375 -0.53125 0.375 -1.15625q0 -0.625 -0.375 -1.09375q-0.359375 -0.46875 -1.1875 -0.796875q-0.546875 -0.203125 -2.390625 -0.640625q-1.828125 -0.453125 -2.5625 -0.84375q-0.96875 -0.5 -1.4375 -1.234375q-0.46875 -0.75 -0.46875 -1.6718903q0 -1.0 0.578125 -1.875q0.578125 -0.890625 1.671875 -1.34375q1.109375 -0.453125 2.453125 -0.453125q1.484375 0 2.609375 0.484375q1.140625 0.46875 1.75 1.40625q0.609375 0.921875 0.65625 2.09375l-1.6875 0.12501526q-0.140625 -1.2656403 -0.9375 -1.9062653q-0.78125 -0.65625 -2.3125 -0.65625q-1.609375 0 -2.34375 0.59375q-0.734375 0.59375 -0.734375 1.421875q0 0.71876526 0.53125 1.1718903q0.5 0.46875 2.65625 0.96875q2.15625 0.484375 2.953125 0.84375q1.171875 0.53125 1.71875 1.359375q0.5625 0.828125 0.5625 1.90625q0 1.0625 -0.609375 2.015625q-0.609375 0.9375 -1.75 1.46875q-1.140625 0.515625 -2.578125 0.515625q-1.8125 0 -3.046875 -0.53125q-1.21875 -0.53125 -1.921875 -1.59375q-0.6875 -1.0625 -0.71875 -2.40625zm16.412323 2.828125l0.234375 1.453125q-0.6875 0.140625 -1.234375 0.140625q-0.890625 0 -1.390625 -0.28125q-0.484375 -0.28125 -0.6875 -0.734375q-0.203125 -0.46875 -0.203125 -1.9375l0 -5.578125l-1.203125 0l0 -1.2656403l1.203125 0l0 -2.390625l1.625 -0.984375l0 3.375l1.65625 0l0 1.2656403l-1.65625 0l0 5.671875q0 0.6875 0.078125 0.890625q0.09375 0.203125 0.28125 0.328125q0.203125 0.109375 0.578125 0.109375q0.265625 0 0.71875 -0.0625zm1.5895538 1.46875l0 -9.67189l1.46875 0l0 1.4687653q0.5625 -1.03125 1.03125 -1.3593903q0.484375 -0.328125 1.0625 -0.328125q0.828125 0 1.6875 0.53126526l-0.5625 1.515625q-0.609375 -0.359375 -1.203125 -0.359375q-0.546875 0 -0.96875 0.328125q-0.421875 0.328125 -0.609375 0.890625q-0.28125 0.875 -0.28125 1.921875l0 5.0625l-1.625 0zm12.853302 -3.109375l1.6875 0.203125q-0.40625 1.484375 -1.484375 2.3125q-1.078125 0.8125 -2.765625 0.8125q-2.125 0 -3.375 -1.296875q-1.234375 -1.3125 -1.234375 -3.671875q0 -2.453125 1.25 -3.796875q1.265625 -1.3437653 3.265625 -1.3437653q1.9375 0 3.15625 1.3281403q1.234375 1.3125 1.234375 3.703125q0 0.15625 0 0.4375l-7.21875 0q0.09375 1.59375 0.90625 2.453125q0.8125 0.84375 2.015625 0.84375q0.90625 0 1.546875 -0.46875q0.640625 -0.484375 1.015625 -1.515625zm-5.390625 -2.65625l5.40625 0q-0.109375 -1.21875 -0.625 -1.828125q-0.78125 -0.953125 -2.03125 -0.953125q-1.125 0 -1.90625 0.765625q-0.765625 0.75 -0.84375 2.015625zm9.141357 5.765625l0 -9.67189l1.46875 0l0 1.3750153q1.0625 -1.5937653 3.078125 -1.5937653q0.875 0 1.609375 0.3125q0.734375 0.31251526 1.09375 0.82814026q0.375 0.5 0.515625 1.203125q0.09375 0.453125 0.09375 1.59375l0 5.953125l-1.640625 0l0 -5.890625q0 -1.0 -0.203125 -1.484375q-0.1875 -0.5 -0.671875 -0.796875q-0.484375 -0.296875 -1.140625 -0.296875q-1.046875 0 -1.8125 0.671875q-0.75 0.65625 -0.75 2.515625l0 5.28125l-1.640625 0zm10.063202 0.796875l1.59375 0.234375q0.109375 0.75 0.5625 1.078125q0.609375 0.453125 1.671875 0.453125q1.140625 0 1.75 -0.453125q0.625 -0.453125 0.84375 -1.265625q0.125 -0.5 0.109375 -2.109375q-1.0625 1.265625 -2.671875 1.265625q-2.0 0 -3.09375 -1.4375q-1.09375 -1.4375 -1.09375 -3.453125q0 -1.390625 0.5 -2.5625q0.515625 -1.171875 1.453125 -1.796875q0.953125 -0.64064026 2.25 -0.64064026q1.703125 0 2.8125 1.3750153l0 -1.1562653l1.515625 0l0 8.35939q0 2.265625 -0.46875 3.203125q-0.453125 0.9375 -1.453125 1.484375q-0.984375 0.546875 -2.453125 0.546875q-1.71875 0 -2.796875 -0.78125q-1.0625 -0.765625 -1.03125 -2.34375zm1.359375 -5.8125q0 1.90625 0.75 2.78125q0.765625 0.875 1.90625 0.875q1.125 0 1.890625 -0.859375q0.765625 -0.875 0.765625 -2.734375q0 -1.78125 -0.796875 -2.671875q-0.78125 -0.90625 -1.890625 -0.90625q-1.09375 0 -1.859375 0.890625q-0.765625 0.875 -0.765625 2.625zm12.906982 3.546875l0.234375 1.453125q-0.6875 0.140625 -1.234375 0.140625q-0.890625 0 -1.390625 -0.28125q-0.484375 -0.28125 -0.6875 -0.734375q-0.203125 -0.46875 -0.203125 -1.9375l0 -5.578125l-1.203125 0l0 -1.2656403l1.203125 0l0 -2.390625l1.625 -0.984375l0 3.375l1.65625 0l0 1.2656403l-1.65625 0l0 5.671875q0 0.6875 0.078125 0.890625q0.09375 0.203125 0.28125 0.328125q0.203125 0.109375 0.578125 0.109375q0.265625 0 0.71875 -0.0625zm1.6051636 1.46875l0 -13.35939l1.640625 0l0 4.7968903q1.140625 -1.3281403 2.890625 -1.3281403q1.078125 0 1.859375 0.42189026q0.796875 0.421875 1.140625 1.171875q0.34375 0.75 0.34375 2.171875l0 6.125l-1.640625 0l0 -6.125q0 -1.234375 -0.53125 -1.796875q-0.53125 -0.5625 -1.515625 -0.5625q-0.71875 0 -1.359375 0.390625q-0.640625 0.375 -0.921875 1.015625q-0.265625 0.640625 -0.265625 1.78125l0 5.296875l-1.640625 0zm9.719482 -2.890625l1.625 -0.25q0.125 0.96875 0.75 1.5q0.625 0.515625 1.75 0.515625q1.125 0 1.671875 -0.453125q0.546875 -0.46875 0.546875 -1.09375q0 -0.546875 -0.484375 -0.875q-0.328125 -0.21875 -1.671875 -0.546875q-1.8125 -0.46875 -2.515625 -0.796875q-0.6875 -0.328125 -1.046875 -0.90625q-0.359375 -0.59375 -0.359375 -1.3125q0 -0.640625 0.296875 -1.1875q0.296875 -0.5625 0.8125 -0.921875q0.375 -0.28126526 1.03125 -0.46876526q0.671875 -0.203125 1.421875 -0.203125q1.140625 0 2.0 0.328125q0.859375 0.32814026 1.265625 0.89064026q0.421875 0.5625 0.578125 1.5l-1.609375 0.21875q-0.109375 -0.75 -0.640625 -1.171875q-0.515625 -0.421875 -1.46875 -0.421875q-1.140625 0 -1.625 0.375q-0.46875 0.375 -0.46875 0.875q0 0.3125 0.1875 0.578125q0.203125 0.265625 0.640625 0.4375q0.234375 0.09375 1.4375 0.421875q1.75 0.453125 2.4375 0.75q0.6875 0.296875 1.078125 0.859375q0.390625 0.5625 0.390625 1.40625q0 0.828125 -0.484375 1.546875q-0.46875 0.71875 -1.375 1.125q-0.90625 0.390625 -2.046875 0.390625q-1.875 0 -2.875 -0.78125q-0.984375 -0.78125 -1.25 -2.328125z" fill-rule="nonzero"></path><path fill="#000000" fill-opacity="0.0" d="m186.82677 162.39633c53.173233 0 79.75984 -26.228348 106.34645 -52.456696c26.58664 -26.228348 53.17325 -52.456696 106.346466 -52.456696" fill-rule="evenodd"></path><path stroke="#980000" stroke-width="4.0" stroke-linejoin="round" stroke-linecap="butt" stroke-dasharray="16.0,12.0" d="m210.74625 160.43211l0.22227478 -0.037887573c0.3528595 -0.0617218 0.7043457 -0.12477112 1.0545044 -0.18916321c0.7003021 -0.12876892 1.3952179 -0.2628479 2.0849 -0.40211487c2.758606 -0.5570984 5.432846 -1.1974335 8.02919 -1.9146271c10.3854065 -2.8687134 19.524551 -6.9669037 27.83287 -11.884705c16.616623 -9.835632 29.909927 -22.949814 43.20323 -36.06398c26.58664 -26.228348 53.17325 -52.456696 106.346466 -52.456696" fill-rule="evenodd"></path><path fill="#980000" stroke="#980000" stroke-width="4.0" stroke-linecap="butt" d="m210.20554 153.84735l-17.550766 8.070389l18.632217 5.0991364z" fill-rule="evenodd"></path><path fill="#000000" fill-opacity="0.0" d="m391.18634 35.89215l126.236206 0l0 42.23622l-126.236206 0z" fill-rule="evenodd"></path><path fill="#980000" d="m400.85822 58.4684l2.625 -0.25q0.234375 1.3125 0.953125 1.9375q0.734375 0.609375 1.96875 0.609375q1.296875 0 1.953125 -0.546875q0.671875 -0.546875 0.671875 -1.28125q0 -0.484375 -0.28125 -0.8125q-0.28125 -0.328125 -0.96875 -0.578125q-0.484375 -0.15625 -2.171875 -0.578125q-2.15625 -0.546875 -3.03125 -1.328125q-1.234375 -1.09375 -1.234375 -2.6875q0 -1.015625 0.578125 -1.90625q0.578125 -0.890625 1.65625 -1.34375q1.09375 -0.46875 2.640625 -0.46875q2.515625 0 3.78125 1.109375q1.28125 1.09375 1.34375 2.9375l-2.703125 0.109375q-0.171875 -1.03125 -0.75 -1.46875q-0.5625 -0.453125 -1.703125 -0.453125q-1.171875 0 -1.84375 0.46875q-0.421875 0.3125 -0.421875 0.84375q0 0.46875 0.40625 0.796875q0.5 0.4375 2.46875 0.90625q1.96875 0.453125 2.90625 0.953125q0.953125 0.5 1.484375 1.359375q0.53125 0.859375 0.53125 2.125q0 1.15625 -0.640625 2.15625q-0.640625 1.0 -1.8125 1.484375q-1.15625 0.484375 -2.890625 0.484375q-2.53125 0 -3.890625 -1.171875q-1.359375 -1.171875 -1.625 -3.40625zm14.912323 4.34375l-3.0625 -9.671875l2.484375 0l1.8125 6.34375l1.671875 -6.34375l2.46875 0l1.609375 6.34375l1.859375 -6.34375l2.515625 0l-3.109375 9.671875l-2.453125 0l-1.671875 -6.21875l-1.640625 6.21875l-2.484375 0zm18.30832 -3.078125l2.546875 0.421875q-0.484375 1.40625 -1.546875 2.140625q-1.0625 0.734375 -2.65625 0.734375q-2.515625 0 -3.734375 -1.65625q-0.953125 -1.3125 -0.953125 -3.328125q0 -2.40625 1.25 -3.765625q1.265625 -1.359375 3.1875 -1.359375q2.15625 0 3.40625 1.421875q1.25 1.421875 1.1875 4.375l-6.40625 0q0.03125 1.140625 0.609375 1.78125q0.59375 0.625 1.484375 0.625q0.59375 0 1.0 -0.328125q0.421875 -0.328125 0.625 -1.0625zm0.15625 -2.59375q-0.03125 -1.109375 -0.578125 -1.6875q-0.546875 -0.578125 -1.328125 -0.578125q-0.84375 0 -1.390625 0.609375q-0.546875 0.609375 -0.53125 1.65625l3.828125 0zm10.219452 2.59375l2.546875 0.421875q-0.484375 1.40625 -1.546875 2.140625q-1.0625 0.734375 -2.65625 0.734375q-2.515625 0 -3.734375 -1.65625q-0.953125 -1.3125 -0.953125 -3.328125q0 -2.40625 1.25 -3.765625q1.265625 -1.359375 3.1875 -1.359375q2.15625 0 3.40625 1.421875q1.25 1.421875 1.1875 4.375l-6.40625 0q0.03125 1.140625 0.609375 1.78125q0.59375 0.625 1.484375 0.625q0.59375 0 1.0 -0.328125q0.421875 -0.328125 0.625 -1.0625zm0.15625 -2.59375q-0.03125 -1.109375 -0.578125 -1.6875q-0.546875 -0.578125 -1.328125 -0.578125q-0.84375 0 -1.390625 0.609375q-0.546875 0.609375 -0.53125 1.65625l3.828125 0zm9.063232 -4.0l0 2.03125l-1.75 0l0 3.90625q0 1.1875 0.046875 1.390625q0.046875 0.1875 0.21875 0.3125q0.1875 0.125 0.4375 0.125q0.359375 0 1.03125 -0.25l0.21875 2.0q-0.890625 0.375 -2.015625 0.375q-0.703125 0 -1.265625 -0.234375q-0.546875 -0.234375 -0.8125 -0.59375q-0.25 -0.375 -0.34375 -1.0q-0.09375 -0.453125 -0.09375 -1.8125l0 -4.21875l-1.171875 0l0 -2.03125l1.171875 0l0 -1.921875l2.578125 -1.5l0 3.421875l1.75 0zm6.0522156 6.90625l2.5625 -0.390625q0.171875 0.75 0.671875 1.140625q0.5 0.390625 1.40625 0.390625q0.984375 0 1.484375 -0.375q0.34375 -0.25 0.34375 -0.671875q0 -0.296875 -0.1875 -0.484375q-0.1875 -0.1875 -0.859375 -0.34375q-3.09375 -0.6875 -3.921875 -1.25q-1.140625 -0.78125 -1.140625 -2.171875q0 -1.265625 0.984375 -2.109375q1.0 -0.859375 3.078125 -0.859375q1.984375 0 2.953125 0.65625q0.96875 0.640625 1.328125 1.90625l-2.40625 0.4375q-0.15625 -0.5625 -0.59375 -0.859375q-0.421875 -0.296875 -1.234375 -0.296875q-1.0 0 -1.4375 0.28125q-0.296875 0.203125 -0.296875 0.515625q0 0.265625 0.25 0.46875q0.34375 0.25 2.390625 0.71875q2.046875 0.453125 2.859375 1.140625q0.796875 0.671875 0.796875 1.890625q0 1.34375 -1.109375 2.296875q-1.109375 0.953125 -3.28125 0.953125q-1.984375 0 -3.140625 -0.796875q-1.140625 -0.8125 -1.5 -2.1875zm11.203857 -6.90625l2.390625 0l0 1.421875q0.46875 -0.734375 1.25 -1.1875q0.796875 -0.453125 1.765625 -0.453125q1.6875 0 2.859375 1.328125q1.171875 1.3125 1.171875 3.671875q0 2.421875 -1.1875 3.765625q-1.1875 1.34375 -2.859375 1.34375q-0.8125 0 -1.46875 -0.3125q-0.640625 -0.328125 -1.359375 -1.09375l0 4.875l-2.5625 0l0 -13.359375zm2.53125 4.671875q0 1.625 0.640625 2.40625q0.65625 0.78125 1.578125 0.78125q0.90625 0 1.484375 -0.71875q0.59375 -0.71875 0.59375 -2.34375q0 -1.515625 -0.609375 -2.25q-0.609375 -0.75 -1.515625 -0.75q-0.9375 0 -1.5625 0.734375q-0.609375 0.71875 -0.609375 2.140625zm8.349091 0.03125q0 -1.28125 0.625 -2.46875q0.625 -1.203125 1.78125 -1.828125q1.15625 -0.625 2.578125 -0.625q2.1875 0 3.59375 1.421875q1.40625 1.421875 1.40625 3.609375q0 2.1875 -1.421875 3.640625q-1.421875 1.4375 -3.5625 1.4375q-1.328125 0 -2.546875 -0.59375q-1.203125 -0.609375 -1.828125 -1.765625q-0.625 -1.171875 -0.625 -2.828125zm2.625 0.125q0 1.453125 0.671875 2.21875q0.6875 0.75 1.6875 0.75q1.0 0 1.671875 -0.75q0.6875 -0.765625 0.6875 -2.234375q0 -1.421875 -0.6875 -2.1875q-0.671875 -0.765625 -1.671875 -0.765625q-1.0 0 -1.6875 0.765625q-0.671875 0.765625 -0.671875 2.203125zm13.802246 -4.828125l0 2.03125l-1.75 0l0 3.90625q0 1.1875 0.046875 1.390625q0.046875 0.1875 0.21875 0.3125q0.1875 0.125 0.4375 0.125q0.359375 0 1.03125 -0.25l0.21875 2.0q-0.890625 0.375 -2.015625 0.375q-0.703125 0 -1.265625 -0.234375q-0.546875 -0.234375 -0.8125 -0.59375q-0.25 -0.375 -0.34375 -1.0q-0.09375 -0.453125 -0.09375 -1.8125l0 -4.21875l-1.171875 0l0 -2.03125l1.171875 0l0 -1.921875l2.578125 -1.5l0 3.421875l1.75 0zm2.775177 6.234375l-0.671875 -6.78125l0 -3.140625l2.78125 0l0 3.140625l-0.65625 6.78125l-1.453125 0zm-0.5625 3.4375l0 -2.5625l2.5625 0l0 2.5625l-2.5625 0z" fill-rule="nonzero"></path></g></svg>

